<?xml version="1.0" encoding="utf-8"?>
<!-- Generator: Adobe Illustrator 24.0.2, SVG Export Plug-In . SVG Version: 6.00 Build 0)  -->
<svg version="1.1" id="Calque_1" xmlns="http://www.w3.org/2000/svg" xmlns:xlink="http://www.w3.org/1999/xlink" x="0px" y="0px"
	 viewBox="0 0 595.28 841.89" style="enable-background:new 0 0 595.28 841.89;" xml:space="preserve">
<style type="text/css">
	.st0{fill:#EF7D13;}
	.st1{fill:#FFFFFF;}
	.st2{fill:url(#SVGID_1_);}
</style>
<path class="st0" d="M481.11,622.87c-6.32,7.54-40.34,48.13-91.99,54.15c-37.66,4.39-44.98-14.23-88.37-10.42
	c-46.45,4.08-52.27,26.66-90.1,24.31c-6.67-0.41-53.59-4.1-76.24-43.41c-20.43-35.46-5.95-73.57-3.78-79.02
	c2.36,0.37,4.78,0.57,7.24,0.57c14.87,0,28.12-6.98,36.64-17.85c0.91-1.18,1.78-2.4,2.6-3.67c1-1.58,1.93-3.22,2.74-4.92
	c2.94-6.13,4.58-12.99,4.58-20.23c0-7.25-1.65-14.12-4.58-20.23c-0.82-1.7-1.74-3.35-2.74-4.92c-0.82-1.27-1.68-2.48-2.6-3.67
	c-4.32-5.51-9.84-10.02-16.18-13.12c12.53-36.27,25.91-67.72,48.12-89.31v60.45h29.38v-80.44c8.17-3.65,16.47-6,25.14-7.19v40.74
	h29.38v-40.71c33.03,3.91,73.34,19.59,130.58,41.85c29.42,11.44,50.18,19.64,64.93,29.28c-23.87,15.23-60.63,37.92-92.59,57.5
	c-35.06,21.49-64.31,39.21-64.34,39.24c0,0-10.02-2.63-18.71-6.41c-11.52-5.03-12.25-8.43-19.16-8.97
	c-4.03-0.33-11.68,0.21-13.36,4.1c-2,4.67,5.9,11.02,17.44,24.26c16.95,19.49,14.84,22.91,20.44,26.38
	c28.12,17.44,97.65-59.1,112.28-47.03c4.24,3.5-0.49,10.86-2.43,51.55c-1.24,25.99,0.22,32.87,3.27,33.8
	c1.95,0.59,5.11-1.09,11.35-9.97c16.33-23.3,18.96-46.56,29.9-86.26c5.51-20.03,7.4-23.43,9.45-26.37
	c7.65-11.02,16.09-13.75,32.09-22.9C513.83,472.48,535.88,557.51,481.11,622.87z"/>
<path class="st1" d="M377.74,490.85c-2.78,0.39-4.91,0.23-30.7-9.59c-11.54-4.4-15.44-6.01-15.6-8.72
	c-0.24-3.98,7.79-7.44,11.6-9.09c6.68-2.88,18.96-6.8,45.15-4.02c12.79,1.36,25.99,2.76,26.66,7.28c0.15,1.05-0.27,2.94-15.42,12.4
	C387.47,486.58,381.48,490.32,377.74,490.85z"/>
<path class="st0" d="M522.6,457.32c-4.08,2.62-7.76,4.81-11.11,6.72c-0.93-1.98-1.94-3.94-3.04-5.87
	c-5.32-9.31-12.57-16.51-22.59-23.04c2.33-1.5,4.54-2.91,6.61-4.24c1.87-1.19,10.11-6.54,22.14-9.18
	c17.03-3.74,38.61-1.42,40.65,6.09C557.24,435.12,540.24,446.01,522.6,457.32z"/>
<path class="st1" d="M511.49,464.04c-16,9.15-24.44,11.88-32.09,22.9c-2.05,2.94-3.93,6.34-9.45,26.37
	c-10.94,39.71-13.57,62.97-29.9,86.26c-6.23,8.89-9.4,10.56-11.35,9.97c-3.06-0.93-4.51-7.81-3.27-33.8
	c1.94-40.68,6.67-48.05,2.43-51.55c-14.63-12.07-84.16,64.46-112.28,47.03c-5.61-3.47-3.49-6.9-20.44-26.38
	c-11.54-13.24-19.43-19.59-17.44-24.26c1.67-3.89,9.33-4.43,13.36-4.1c6.91,0.54,7.64,3.94,19.16,8.97
	c8.69,3.79,18.71,6.41,18.71,6.41c0.02-0.02,29.28-17.75,64.34-39.24c31.96-19.58,68.72-42.28,92.59-57.5
	c10.01,6.54,17.27,13.73,22.59,23.04C509.56,460.09,510.57,462.06,511.49,464.04z"/>
<path class="st0" d="M158.33,480.45c-3.75,10.86-7.44,22.16-11.25,33.76c-5.13,15.54-11.26,34.18-16.45,54.27
	c-11.89-1.86-22.28-8.21-29.4-17.28c-0.93-1.18-1.79-2.4-2.6-3.67c-1.01-1.58-1.93-3.22-2.74-4.92c-2.95-6.13-4.6-12.99-4.6-20.23
	c0-7.25,1.65-14.12,4.6-20.23c0.82-1.7,1.73-3.35,2.74-4.92c0.81-1.27,1.67-2.48,2.6-3.67c8.53-10.88,21.77-17.86,36.64-17.86
	C145.22,475.71,152.16,477.41,158.33,480.45z"/>
<path class="st1" d="M184.44,522.39c0,7.25-1.65,14.11-4.58,20.23c-0.82,1.7-1.74,3.34-2.74,4.92c-0.82,1.27-1.68,2.48-2.6,3.67
	c-8.52,10.86-21.77,17.85-36.64,17.85c-2.47,0-4.89-0.19-7.24-0.57c5.19-20.09,11.32-38.73,16.45-54.27
	c3.81-11.6,7.5-22.9,11.25-33.76c6.34,3.1,11.86,7.61,16.18,13.12c0.91,1.18,1.78,2.4,2.6,3.67c1,1.57,1.93,3.22,2.74,4.92
	C182.8,508.27,184.44,515.14,184.44,522.39z"/>
<path class="st0" d="M137.88,475.71c7.34,0,14.28,1.7,20.46,4.74c-3.75,10.86-7.44,22.16-11.25,33.76
	c-5.13,15.54-11.26,34.18-16.45,54.27c-11.89-1.86-22.28-8.21-29.4-17.28c-0.91-1.18-1.78-2.4-2.6-3.67c-1-1.58-1.93-3.22-2.74-4.92
	c-2.94-6.13-4.58-12.99-4.58-20.23c0-7.25,1.65-14.12,4.58-20.23c0.82-1.7,1.74-3.35,2.74-4.92c0.82-1.27,1.68-2.48,2.6-3.67
	C109.77,482.69,123,475.71,137.88,475.71z"/>
<path class="st0" d="M174.52,551.2c0.91-1.18,1.78-2.4,2.6-3.67C176.31,548.8,175.44,550.02,174.52,551.2z"/>
<path class="st0" d="M174.52,493.57c0.93,1.18,1.79,2.4,2.6,3.67C176.3,495.97,175.43,494.75,174.52,493.57z"/>
<path class="st0" d="M177.12,547.54c1-1.58,1.93-3.22,2.74-4.92C179.04,544.32,178.13,545.96,177.12,547.54z"/>
<path class="st0" d="M177.12,497.23c1.01,1.57,1.93,3.22,2.74,4.92C179.04,500.45,178.11,498.8,177.12,497.23z"/>
<path class="st0" d="M184.46,522.39c0,7.25-1.65,14.11-4.6,20.23c2.94-6.13,4.58-12.99,4.58-20.23c0-7.25-1.65-14.12-4.58-20.23
	C182.81,508.27,184.46,515.14,184.46,522.39z"/>
<path class="st1" d="M290.36,363.99v40.71h-29.38v-40.74C270.24,362.68,279.94,362.75,290.36,363.99z"/>
<path class="st0" d="M290.36,274.47v89.52c-10.42-1.24-20.12-1.31-29.38-0.04v-89.48H290.36z"/>
<linearGradient id="SVGID_1_" gradientUnits="userSpaceOnUse" x1="172.2798" y1="308.668" x2="382.9344" y2="424.1379">
	<stop  offset="0.269" style="stop-color:#BA640C"/>
	<stop  offset="0.5025" style="stop-color:#EF7D13"/>
</linearGradient>
<path class="st2" d="M260.97,274.47V404.7l-25.14,21.62v-55.18c-1.48,0.65-2.96,1.36-4.44,2.11c-9.45,4.79-17.66,10.8-24.94,17.88
	v-69.78L260.97,274.47z"/>
<polygon class="st0" points="260.97,274.47 206.45,321.35 235.84,321.35 290.36,274.47 "/>
<path class="st1" d="M235.84,371.14v80.44h-29.38v-60.45c7.28-7.08,15.5-13.1,24.94-17.88C232.88,372.5,234.36,371.79,235.84,371.14
	z"/>
<path class="st0" d="M235.84,321.35v49.79c-1.48,0.65-2.96,1.36-4.44,2.11c-9.45,4.79-17.66,10.8-24.94,17.88v-69.78H235.84z"/>
</svg>
